<?xml version="1.0" encoding="UTF-8"?>
<svg width="24px" height="24px" viewBox="0 0 24 24" version="1.1" xmlns="http://www.w3.org/2000/svg" xmlns:xlink="http://www.w3.org/1999/xlink">
    <!-- Generator: Sketch 54.1 (76490) - https://sketchapp.com -->
    <title>copy-export</title>
    <desc>Created with Sketch.</desc>
    <g id="copy-export" stroke="none" stroke-width="1" fill="none" fill-rule="evenodd">
        <g id="Group-3" fill="#00AFA1">
            <path d="M9,0 L9,2.88240495 L9.02288828,2.88240495 L10.2049046,4.05272888 L10.2049046,1.18479222 L16.960218,1.18479222 L16.960218,5.73105056 L16.960218,6.89494414 L18.1455041,6.89494414 L22.7950954,6.89494414 L22.7950954,18.8152078 L15.2762943,18.8152078 L15.2762943,20 L24,20 L24,5.72140503 L18.2125341,0 L9,0 Z M18.1455041,1.61401817 L22.3095368,5.73105056 L18.1455041,5.73105056 L18.1455041,1.61401817 Z" id="Fill-1"></path>
            <path d="M0,4 L0,24 L15,24 L15,10.8949441 L15,9.73105056 L15,9.72301262 L9.21253406,4 L0,4 Z M1.20490463,5.18479222 L7.96021798,5.18479222 L7.96021798,9.73105056 L7.96021798,10.8949441 L9.14550409,10.8949441 L13.7950954,10.8949441 L13.7950954,22.8152078 L1.20490463,22.8152078 L1.20490463,5.18479222 Z M9.14550409,5.61401817 L13.3095368,9.73105056 L9.14550409,9.73105056 L9.14550409,5.61401817 Z" id="Fill-2"></path>
        </g>
    </g>
</svg>