<?xml version="1.0" encoding="UTF-8"?>
<svg width="20px" height="24px" viewBox="0 0 20 24" version="1.1" xmlns="http://www.w3.org/2000/svg" xmlns:xlink="http://www.w3.org/1999/xlink">
    <!-- Generator: Sketch 54.1 (76490) - https://sketchapp.com -->
    <title>delete-white-export</title>
    <desc>Created with Sketch.</desc>
    <g id="delete-white-export" stroke="none" stroke-width="1" fill="none" fill-rule="evenodd">
        <g id="noun_Delete_1898116_000000" fill="#FFFFFF" fill-rule="nonzero">
            <path d="M4.41860465,3.57672755 C4.41860465,3.10255425 4.41860465,2.62838096 4.41860465,2.15420767 C4.41860465,1.73191223 4.50650804,1.30446684 4.72164002,0.949120674 C5.00616942,0.480475731 5.45031287,0.125129565 5.95922723,0.03758051 C6.23913013,-0.011343962 6.51903303,0.00153089906 6.80124918,0.00153089906 C7.28471783,0.00153089906 7.76587323,0.00153089906 8.24934188,0.00153089906 C9.47998934,0.00153089906 10.7083236,0.00153089906 11.938971,0.00153089906 C12.3553555,0.00153089906 12.77174,0.00153089906 13.1881245,0.00153089906 C13.6392077,0.00153089906 14.0764114,0.03758051 14.4719766,0.320827454 C14.8929876,0.624674175 15.2191554,1.1139189 15.3093721,1.66753792 C15.3533238,1.93791 15.3486973,2.20055717 15.3486973,2.47350422 C15.3486973,2.84124533 15.3486973,3.20898644 15.3486973,3.57672755 C15.425787,3.57672755 15.5028767,3.57672755 15.5799664,3.57672755 C16.2663723,3.57672755 16.9527782,3.57672755 17.6391841,3.57672755 C18.1014574,3.57672755 18.5613961,3.57672755 19.0236694,3.57672755 C19.1941036,3.57672755 19.362203,3.57672755 19.5326371,3.57672755 C19.7941251,3.57672755 19.9879063,3.80803992 19.9995799,4.08510638 C20.0112535,4.35963095 19.7777821,4.59348522 19.5326371,4.59348522 C19.5209635,4.59348522 19.5116247,4.59348522 19.4999511,4.59348522 C19.2501367,4.59856901 19.0003223,4.59348522 18.7528426,4.59348522 C18.4707634,4.59348522 18.1886842,4.59348522 17.9066051,4.59348522 C17.9066051,5.16392862 17.9066051,5.73192167 17.9066051,6.30242165 C17.9066051,7.28205865 17.9066051,8.25913115 17.9066051,9.23620366 C17.9066051,10.4107423 17.9066051,11.5827164 17.9066051,12.7546905 C17.9066051,13.9266646 17.9066051,15.0960742 17.9066051,16.2680483 C17.9066051,17.2374273 17.9066051,18.2093708 17.9066051,19.1787498 C17.9066051,19.7506322 17.9066051,20.3225145 17.9066051,20.8943968 C17.9066051,21.0149281 17.9089281,21.1354594 17.9019589,21.2559906 C17.8508511,22.2074182 17.390881,23.0742174 16.6544641,23.5768584 C16.2270172,23.8692108 15.7322008,24 15.2327383,24 C15.0468918,24 14.8633683,24 14.6775218,24 C13.883028,24 13.0885341,24 12.2940403,24 C11.230069,24 10.1637746,24 9.09980326,24 C8.12178596,24 7.14144559,24 6.1634283,24 C5.62679648,24 5.09016467,24 4.55353285,24 C4.06800883,24 3.59410021,23.8794687 3.17129938,23.6101968 C2.4302364,23.1357653 1.96794319,22.2920465 1.8796661,21.3611349 C1.84481987,20.9969766 1.86805069,20.6225604 1.86805069,20.2584021 C1.86805069,19.4659733 1.86805069,18.6761089 1.86805069,17.8862445 C1.86805069,16.7937697 1.86805069,15.701295 1.86805069,14.6088202 C1.86805069,13.4112011 1.86805069,12.2161466 1.86805069,11.0185275 C1.86805069,9.91579477 1.86805069,8.81562652 1.86805069,7.71289377 C1.86805069,6.90251343 1.86805069,6.09213308 1.86805069,5.28175274 C1.86805069,5.05233023 1.86805069,4.82290772 1.86805069,4.59348522 C1.57094733,4.59348522 1.27412337,4.59348522 0.976330554,4.59348522 C0.805896435,4.59348522 0.63779703,4.59348522 0.467362911,4.59348522 C0.205874948,4.59348522 0.0120936891,4.35963095 0.00042011932,4.08510638 C-0.0112534505,3.81058181 0.222217945,3.57672755 0.467362911,3.57672755 C0.479036481,3.57672755 0.488375336,3.57672755 0.500048906,3.57672755 C0.7498633,3.57164376 0.999677693,3.57672755 1.24715737,3.57672755 C1.7701333,3.57672755 2.29310923,3.57672755 2.81608515,3.57672755 C3.35120977,3.57672755 3.88507439,3.57672755 4.41860465,3.57672755 Z M5.3439035,3.57672755 C6.08913417,3.57672755 6.83285054,3.57672755 7.57656691,3.57672755 C8.49644421,3.57672755 9.41865622,3.57672755 10.3408682,3.57672755 C11.2537414,3.57672755 12.1666146,3.57672755 13.0794877,3.57672755 C13.5290001,3.57672755 13.9785125,3.57672755 14.4280249,3.57672755 C14.4280249,3.1154446 14.4280249,2.65285094 14.4280249,2.19025728 C14.4280249,2.10270823 14.4257117,2.01515917 14.4210852,1.92761011 C14.4187719,1.88641056 14.4187719,1.90443536 14.4280249,1.97653459 C14.4233984,1.95335984 14.4210852,1.93018509 14.4164587,1.90701034 C14.4118322,1.88383559 14.4072057,1.86323581 14.4025792,1.84006106 C14.3886997,1.78341167 14.372507,1.72933725 14.3563143,1.67526284 C14.3239288,1.56711401 14.3956395,1.74736206 14.3609408,1.6881377 C14.3470613,1.66496295 14.3378083,1.63663825 14.3262421,1.6134635 C14.3007963,1.56453903 14.2753506,1.51561456 14.2475916,1.46926506 C14.2429652,1.45896517 14.2360254,1.45124026 14.2313989,1.44094037 C14.20364,1.39459087 14.2082664,1.40489076 14.2499049,1.46411512 C14.2522181,1.4563902 14.2082664,1.40746573 14.2013267,1.39974081 C14.1712545,1.36111623 14.138869,1.32506662 14.1064836,1.29159198 C14.0995438,1.28644203 14.0440259,1.2246427 14.0370862,1.22721767 C14.0347729,1.22979265 14.1319293,1.30189187 14.0579054,1.24781745 C14.0162669,1.21691778 13.9746285,1.18601812 13.9306768,1.15769342 C13.9029178,1.14224359 13.8774721,1.12679376 13.8497131,1.11134392 C13.7571833,1.05726951 13.9491828,1.14739353 13.8473999,1.11134392 C13.8034482,1.09589409 13.7594965,1.07786928 13.7155448,1.06499442 C13.6900991,1.05726951 13.6646534,1.04954459 13.6392077,1.04439465 C13.6276414,1.04181967 13.5258585,1.01864492 13.6068222,1.03666973 C13.6854726,1.05469453 13.586003,1.03409476 13.5744367,1.03409476 C13.5536175,1.03409476 13.530485,1.03151978 13.5096658,1.03151978 C12.8318844,1.01349498 12.154103,1.03151978 11.4763216,1.03151978 C10.2803728,1.03151978 9.08442409,1.03151978 7.88847533,1.03151978 C7.46746435,1.03151978 7.04876662,1.03151978 6.63006889,1.03151978 C6.53059927,1.03151978 6.43112964,1.03151978 6.33166002,1.03151978 C6.31778053,1.03151978 6.3062143,1.03151978 6.29233482,1.03151978 C6.25994936,1.03151978 6.2275639,1.03151978 6.19517844,1.03409476 C6.17435921,1.03409476 6.15353999,1.03666973 6.13272076,1.0392447 C6.15353999,1.03666973 6.17204597,1.03409476 6.19286519,1.03151978 C6.18592545,1.01864492 6.05407036,1.06241945 6.04019088,1.0675694 C5.99623918,1.08301923 5.95228749,1.10361901 5.90833579,1.11649387 C5.84587812,1.1319437 6.00780542,1.05984448 5.91990203,1.11134392 C5.9037093,1.12164381 5.88520332,1.1319437 5.86669735,1.14224359 C5.81117942,1.17314326 5.76260123,1.21176784 5.71170979,1.24781745 C5.62843289,1.30704181 5.76491447,1.18601812 5.72096278,1.23751756 C5.7024568,1.25554237 5.68163758,1.27356717 5.6631316,1.29159198 C5.62611965,1.32764159 5.59142094,1.36884114 5.55903548,1.4100407 C5.55209574,1.41776562 5.51739703,1.45896517 5.51971028,1.46154014 C5.56134873,1.40231578 5.56828847,1.39459087 5.53821626,1.43836539 C5.53358976,1.44866528 5.52665002,1.4563902 5.52202353,1.46669009 C5.49195131,1.51303959 5.4665056,1.56196406 5.44337312,1.61088853 C5.44105988,1.61861345 5.39942143,1.69586262 5.40404792,1.70101256 C5.40636117,1.70358753 5.44337312,1.57741389 5.41561416,1.67268787 C5.39942143,1.72933725 5.38091545,1.7808367 5.36934922,1.83748609 C5.36472272,1.86581078 5.35778298,1.89413548 5.35315649,1.92246017 C5.3439035,1.97138464 5.36009623,2.02030911 5.35315649,1.90701034 C5.35778298,1.99198442 5.3439035,2.08725839 5.3439035,2.17480745 C5.3439035,2.29325617 5.3439035,2.40912992 5.3439035,2.52500367 C5.3439035,2.87557829 5.3439035,3.22615292 5.3439035,3.57672755 Z M14.9138091,4.59348522 C14.9061374,4.59427823 14.898424,4.59487822 14.8906743,4.59528133 C14.871199,4.59628498 14.8519486,4.59564561 14.8330063,4.59348522 C14.0285466,4.59348522 13.2259899,4.59348522 12.4234331,4.59348522 C11.5035558,4.59348522 10.5813438,4.59348522 9.65913176,4.59348522 C8.7462586,4.59348522 7.83338545,4.59348522 6.92051229,4.59348522 C6.08701941,4.59348522 5.25352652,4.59348522 4.42003364,4.59348522 C3.87911685,4.59348522 3.33820006,4.59348522 2.79728327,4.59348522 C2.79728327,5.15378546 2.79728327,5.71653404 2.79728327,6.2767767 C2.79728327,7.23846224 2.79728327,8.20271227 2.79728327,9.16439781 C2.79728327,10.3261139 2.79728327,11.4878301 2.79728327,12.6495462 C2.79728327,13.8112623 2.79728327,14.9729784 2.79728327,16.1346946 C2.79728327,17.1117671 2.79728327,18.0862751 2.79728327,19.0633476 C2.79728327,19.6557459 2.79728327,20.2455797 2.79728327,20.837978 C2.79728327,20.9302998 2.79728327,21.0200571 2.79728327,21.1098144 C2.79960635,21.1687978 2.79960635,21.2303457 2.80425251,21.289329 C2.80425251,21.314974 2.8065756,21.3380544 2.80889868,21.3611349 C2.81586792,21.4637147 2.80425251,21.330361 2.80425251,21.330361 C2.79263711,21.3431834 2.82516025,21.4637147 2.82980641,21.4842306 C2.84839106,21.5842459 2.87394496,21.6842612 2.9064681,21.781712 C2.91111426,21.7945345 2.92505275,21.8586469 2.93434508,21.8612114 C2.93202199,21.8612114 2.88323728,21.7432446 2.92272967,21.8330019 C2.93899124,21.8714693 2.95757589,21.9125013 2.97616054,21.9535332 C3.01797601,22.0432905 3.06443764,22.1304833 3.11786851,22.2125472 C3.11554543,22.2099827 3.14806857,22.2664015 3.15271473,22.2664015 C3.14342241,22.263837 3.09231461,22.1817732 3.13645316,22.2407566 C3.16433014,22.279224 3.1945302,22.3176914 3.22473026,22.3535944 C3.28745346,22.4279647 3.35249974,22.4972061 3.42219218,22.5613184 C3.43380759,22.5741409 3.46400765,22.6126083 3.48026922,22.6151728 C3.47794614,22.6151728 3.38734596,22.5408025 3.45936148,22.5946569 C3.49188463,22.6177373 3.52440777,22.6459468 3.55925399,22.6690272 C3.63823876,22.7228816 3.71722353,22.771607 3.80085446,22.8152034 C3.80085446,22.8152034 3.84963917,22.8459774 3.85660841,22.8434129 C3.83802376,22.8485419 3.76833132,22.8075099 3.83105452,22.8305904 C3.87519307,22.8485419 3.91933161,22.8664933 3.96347016,22.8818803 C4.05407034,22.9126542 4.14467051,22.9357347 4.23759377,22.9536861 C4.31890162,22.9690731 4.2468861,22.9844601 4.22365528,22.9536861 C4.22597836,22.9588151 4.28637848,22.9613796 4.28637848,22.9613796 C4.32819395,22.9639441 4.37000942,22.9665086 4.41414796,22.9690731 C4.45828651,22.9690731 4.50474814,22.9690731 4.54888669,22.9690731 C4.73705628,22.9690731 4.92754896,22.9690731 5.11571856,22.9690731 C5.91021242,22.9690731 6.7023832,22.9690731 7.49687705,22.9690731 C8.55387911,22.9690731 9.61320426,22.9690731 10.6702063,22.9690731 C11.6412544,22.9690731 12.6099793,22.9690731 13.5810274,22.9690731 C14.1246284,22.9690731 14.6659064,22.9690731 15.2071844,22.9690731 C15.2350614,22.9690731 15.2606153,22.9690731 15.2884923,22.9690731 C15.337277,22.9690731 15.3860617,22.9665086 15.4348464,22.9639441 C15.4580772,22.9639441 15.4789849,22.9613796 15.4998927,22.9588151 C15.5184773,22.9588151 15.5904928,22.9485571 15.5184773,22.9588151 C15.4371695,22.9690731 15.5417081,22.9536861 15.5510005,22.9511216 C15.5719082,22.9485571 15.5928159,22.9434282 15.6137237,22.9382992 C15.653216,22.9280412 15.6950315,22.9177832 15.7345239,22.9049607 C15.7856317,22.8895738 15.8344164,22.8716223 15.8832011,22.8536708 C15.9017858,22.8459774 15.9226935,22.8382839 15.9412781,22.8305904 C16.0249091,22.797252 15.9157242,22.8434129 15.9157242,22.8434129 C15.9343089,22.8511063 16.0109706,22.797252 16.0272322,22.786994 C16.0690476,22.7639135 16.10854,22.7408331 16.1480324,22.7151881 C16.1921709,22.6869787 16.2339864,22.6562047 16.2758019,22.6254308 C16.2920634,22.6126083 16.308325,22.5997859 16.3245866,22.5869634 C16.3780175,22.548496 16.2572172,22.6510758 16.3036788,22.6049148 C16.366402,22.5408025 16.4337714,22.4818191 16.4941715,22.4151422 C16.5290177,22.3766748 16.563864,22.3356429 16.5963871,22.2920465 C16.6103256,22.274095 16.621941,22.2587081 16.6358795,22.2407566 C16.6939565,22.1663862 16.6196179,22.2664015 16.6196179,22.2664015 C16.649818,22.268966 16.7450643,22.0586775 16.7613259,22.0279035 C16.7868798,21.9791781 16.8124337,21.9304527 16.8333414,21.8791628 C16.8426337,21.8586469 16.849603,21.8381309 16.8588953,21.817615 C16.8867723,21.7560671 16.8310183,21.9125013 16.8472799,21.8458244 C16.8705107,21.7535026 16.90768,21.6637453 16.9285878,21.568859 C16.9402032,21.5124401 16.9518186,21.4560212 16.9611109,21.3996023 C16.963434,21.3765219 16.9657571,21.3508769 16.9704032,21.330361 C16.9425262,21.4380697 16.963434,21.3996023 16.9657571,21.3611349 C16.9727263,21.2790711 16.9773725,21.1970072 16.9773725,21.1123789 C16.9796956,20.796946 16.9773725,20.4815132 16.9773725,20.1660803 C16.9773725,19.3685225 16.9773725,18.5709646 16.9773725,17.7734067 C16.9773725,16.680932 16.9773725,15.5910217 16.9773725,14.4985469 C16.9773725,13.3111858 16.9773725,12.1212603 16.9773725,10.9338992 C16.9773725,9.84398892 16.9773725,8.75407864 16.9773725,7.66416837 C16.9773725,6.86917499 16.9773725,6.07161712 16.9773725,5.27405925 C16.9773725,5.04790768 16.9773725,4.82037115 16.9773725,4.59348522 C16.3181902,4.59348522 15.6607411,4.59348522 15.003292,4.59348522 C14.9734616,4.59348522 14.943634,4.59348522 14.9138091,4.59348522 Z M5.35394838,7.40993918 C5.35394838,7.11847939 5.5632507,6.90439831 5.81395349,6.89408115 C6.06235625,6.8811847 6.2739586,7.13911371 6.2739586,7.40993918 C6.2739586,7.41767705 6.2739586,7.42541492 6.2739586,7.43315279 C6.28545873,7.94901082 6.2739586,8.46744813 6.2739586,8.98588545 C6.2739586,10.0459737 6.2739586,11.1060619 6.2739586,12.1661502 C6.2739586,13.391313 6.2739586,14.6164758 6.2739586,15.8416386 C6.2739586,16.8604582 6.2739586,17.8766986 6.2739586,18.8929389 C6.2739586,19.3185217 6.2739586,19.7415253 6.2739586,20.1645289 C6.2739586,20.4534094 6.06235625,20.6674905 5.81395349,20.6803869 C5.56555073,20.6932834 5.35394838,20.4353544 5.35394838,20.1645289 C5.35394838,20.156791 5.35394838,20.1490532 5.35394838,20.1413153 C5.34244825,19.6254573 5.35394838,19.10702 5.35394838,18.5885826 C5.35394838,17.5284944 5.35394838,16.4684061 5.35394838,15.4083179 C5.35394838,14.1831551 5.35394838,12.9579923 5.35394838,11.7328294 C5.35394838,10.7140098 5.35394838,9.69776953 5.35394838,8.68152922 C5.35394838,8.25594634 5.35394838,7.83294276 5.35394838,7.40993918 Z M10.4600051,20.1645289 C10.4600051,20.4534094 10.2484028,20.6674905 10,20.6803869 C9.75159724,20.6932834 9.53999489,20.4353544 9.53999489,20.1645289 C9.53999489,20.156791 9.53999489,20.1490532 9.53999489,20.1413153 C9.52849476,19.6254573 9.53999489,19.10702 9.53999489,18.5885826 C9.53999489,17.5284944 9.53999489,16.4684061 9.53999489,15.4083179 C9.53999489,14.1831551 9.53999489,12.9579923 9.53999489,11.7328294 C9.53999489,10.7140098 9.53999489,9.69776953 9.53999489,8.68152922 C9.53999489,8.25594634 9.53999489,7.83294276 9.53999489,7.40993918 C9.53999489,7.12105868 9.75159724,6.9069776 10,6.89408115 C10.2484028,6.8811847 10.4600051,7.13911371 10.4600051,7.40993918 C10.4600051,7.41767705 10.4600051,7.42541492 10.4600051,7.43315279 C10.4715052,7.94901082 10.4600051,8.46744813 10.4600051,8.98588545 C10.4600051,10.0459737 10.4600051,11.1060619 10.4600051,12.1661502 C10.4600051,13.391313 10.4600051,14.6164758 10.4600051,15.8416386 C10.4600051,16.8604582 10.4600051,17.8766986 10.4600051,18.8929389 C10.4600051,19.3185217 10.4600051,19.7415253 10.4600051,20.1645289 Z M14.6460516,20.1645289 C14.6460516,20.4534094 14.4367493,20.6674905 14.1860465,20.6803869 C13.9376438,20.6932834 13.7260414,20.4353544 13.7260414,20.1645289 C13.7260414,20.156791 13.7260414,20.1490532 13.7260414,20.1413153 C13.7145413,19.6254573 13.7260414,19.10702 13.7260414,18.5885826 C13.7260414,17.5284944 13.7260414,16.4684061 13.7260414,15.4083179 C13.7260414,14.1831551 13.7260414,12.9579923 13.7260414,11.7328294 C13.7260414,10.7140098 13.7260414,9.69776953 13.7260414,8.68152922 C13.7260414,8.25594634 13.7260414,7.83294276 13.7260414,7.40993918 C13.7260414,7.12105868 13.9376438,6.9069776 14.1860465,6.89408115 C14.4344493,6.8811847 14.6460516,7.13911371 14.6460516,7.40993918 C14.6460516,7.41767705 14.6460516,7.42541492 14.6460516,7.43315279 C14.6575518,7.94901082 14.6460516,8.46744813 14.6460516,8.98588545 C14.6460516,10.0459737 14.6460516,11.1060619 14.6460516,12.1661502 C14.6460516,13.391313 14.6460516,14.6164758 14.6460516,15.8416386 C14.6460516,16.8604582 14.6460516,17.8766986 14.6460516,18.8929389 C14.6460516,19.3185217 14.6460516,19.7415253 14.6460516,20.1645289 Z" id="Combined-Shape"></path>
        </g>
    </g>
</svg>