<?xml version="1.0" encoding="UTF-8"?>
<svg width="19px" height="24px" viewBox="0 0 19 24" version="1.1" xmlns="http://www.w3.org/2000/svg" xmlns:xlink="http://www.w3.org/1999/xlink">
    <!-- Generator: Sketch 54.1 (76490) - https://sketchapp.com -->
    <title>delete-green-export</title>
    <desc>Created with Sketch.</desc>
    <g id="delete-green-export" stroke="none" stroke-width="1" fill="none" fill-rule="evenodd">
        <g id="noun_Delete_1898116_000000" transform="translate(0.000000, 1.000000)" fill="#00B4A6" fill-rule="nonzero">
            <path d="M4.19767442,3.42769723 C4.19767442,2.97328116 4.19767442,2.51886509 4.19767442,2.06444902 C4.19767442,1.65974922 4.28118264,1.25011405 4.48555802,0.909573979 C4.75586095,0.460455909 5.17779722,0.119915833 5.66126587,0.0360146555 C5.92717363,-0.0108712969 6.19308138,0.0014671116 6.46118672,0.0014671116 C6.92048194,0.0014671116 7.37757957,0.0014671116 7.83687478,0.0014671116 C9.00598988,0.0014671116 10.1729074,0.0014671116 11.3420225,0.0014671116 C11.7375877,0.0014671116 12.133153,0.0014671116 12.5287182,0.0014671116 C12.9572473,0.0014671116 13.3725908,0.0360146555 13.7483778,0.307459643 C14.1483382,0.598646084 14.4581977,1.06750561 14.5439035,1.59805717 C14.5856576,1.85716375 14.5812624,2.10886729 14.5812624,2.37044155 C14.5812624,2.72286011 14.5812624,3.07527867 14.5812624,3.42769723 C14.6544976,3.42769723 14.7277328,3.42769723 14.800968,3.42769723 C15.4530536,3.42769723 16.1051393,3.42769723 16.7572249,3.42769723 C17.1963846,3.42769723 17.6333263,3.42769723 18.072486,3.42769723 C18.2343984,3.42769723 18.3940928,3.42769723 18.5560052,3.42769723 C18.8044188,3.42769723 18.988511,3.64937159 18.9996009,3.91489362 C19.0106908,4.17797966 18.788893,4.40209 18.5560052,4.40209 C18.5449153,4.40209 18.5360434,4.40209 18.5249535,4.40209 C18.2876299,4.40696197 18.0503062,4.40209 17.8152005,4.40209 C17.5472253,4.40209 17.27925,4.40209 17.0112748,4.40209 C17.0112748,4.94876493 17.0112748,5.4930916 17.0112748,6.03982075 C17.0112748,6.97863954 17.0112748,7.91500069 17.0112748,8.85136184 C17.0112748,9.97696133 17.0112748,11.1001032 17.0112748,12.223245 C17.0112748,13.3463869 17.0112748,14.4670711 17.0112748,15.5902129 C17.0112748,16.5192012 17.0112748,17.450647 17.0112748,18.3796353 C17.0112748,18.9276892 17.0112748,19.4757431 17.0112748,20.023797 C17.0112748,20.1393061 17.0134817,20.2548152 17.0068609,20.3703243 C16.9583085,21.2821091 16.5213369,22.1127917 15.8217409,22.5944893 C15.4156663,22.8746603 14.9455908,23 14.4711014,23 C14.2945472,23 14.1201999,23 13.9436457,23 C13.1888766,23 12.4341074,23 11.6793382,23 C10.6685655,23 9.65558583,23 8.64481309,23 C7.71569667,23 6.78437331,23 5.85525688,23 C5.34545666,23 4.83565643,23 4.32585621,23 C3.86460838,23 3.4143952,22.8844909 3.01273442,22.6264386 C2.30872458,22.171775 1.86954603,21.3632112 1.78568279,20.4710876 C1.75257888,20.1221026 1.77464815,19.763287 1.77464815,19.4143021 C1.77464815,18.654891 1.77464815,17.8979377 1.77464815,17.1409843 C1.77464815,16.0940293 1.77464815,15.0470743 1.77464815,14.0001193 C1.77464815,12.8524011 1.77464815,11.7071405 1.77464815,10.5594222 C1.77464815,9.50263665 1.77464815,8.44830875 1.77464815,7.3915232 C1.77464815,6.6149087 1.77464815,5.8382942 1.77464815,5.06167971 C1.77464815,4.84181647 1.77464815,4.62195324 1.77464815,4.40209 C1.49239996,4.40209 1.21041721,4.40209 0.927514026,4.40209 C0.765601613,4.40209 0.605907178,4.40209 0.443994765,4.40209 C0.1955812,4.40209 0.0114890047,4.17797966 0.000399113354,3.91489362 C-0.0106907779,3.65180757 0.211107048,3.42769723 0.443994765,3.42769723 C0.455084657,3.42769723 0.46395657,3.42769723 0.475046461,3.42769723 C0.712370135,3.42282527 0.949693809,3.42769723 1.1847995,3.42769723 C1.68162663,3.42769723 2.17845376,3.42769723 2.67528089,3.42769723 C3.18364928,3.42769723 3.69082067,3.42769723 4.19767442,3.42769723 Z M5.07670832,3.42769723 C5.78467746,3.42769723 6.49120801,3.42769723 7.19773857,3.42769723 C8.071622,3.42769723 8.94772341,3.42769723 9.82382483,3.42769723 C10.6910543,3.42769723 11.5582838,3.42769723 12.4255133,3.42769723 C12.8525501,3.42769723 13.2795869,3.42769723 13.7066237,3.42769723 C13.7066237,2.98563441 13.7066237,2.54231548 13.7066237,2.09899656 C13.7066237,2.01509538 13.7044261,1.9311942 13.7000309,1.84729303 C13.6978333,1.80781012 13.6978333,1.82508389 13.7066237,1.89417898 C13.7022285,1.87196984 13.7000309,1.84976071 13.6956358,1.82755157 C13.6912406,1.80534244 13.6868454,1.78560098 13.6824502,1.76339185 C13.6692647,1.70910285 13.6538816,1.65728154 13.6384986,1.60546022 C13.6077324,1.50181759 13.6758575,1.67455531 13.6428937,1.61779863 C13.6297082,1.59558949 13.6209179,1.56844499 13.6099299,1.54623586 C13.5857565,1.49934991 13.5615831,1.45246395 13.5352121,1.40804568 C13.5308169,1.39817496 13.5242241,1.39077191 13.519829,1.38090118 C13.493458,1.33648291 13.4978531,1.34635364 13.5374097,1.40311032 C13.5396072,1.39570727 13.4978531,1.34882132 13.4912604,1.34141828 C13.4626918,1.30440305 13.4319256,1.26985551 13.4011594,1.23777565 C13.3945666,1.23284028 13.3418246,1.17361592 13.3352319,1.1760836 C13.3330343,1.17855128 13.4253328,1.24764637 13.3550101,1.19582506 C13.3154536,1.16621288 13.2758971,1.1366007 13.234143,1.1094562 C13.2077719,1.09465011 13.1835985,1.07984402 13.1572275,1.06503793 C13.0693241,1.01321661 13.2517236,1.09958547 13.1550299,1.06503793 C13.1132758,1.05023184 13.0715217,1.03295806 13.0297676,1.02061966 C13.0055941,1.01321661 12.9814207,1.00581357 12.9572473,1.0008782 C12.9462594,0.99841052 12.8495656,0.976201385 12.9264811,0.993475157 C13.001199,1.01074893 12.9067028,0.991007475 12.8957149,0.991007475 C12.8759366,0.991007475 12.8539608,0.988539794 12.8341825,0.988539794 C12.1902902,0.971266022 11.5463979,0.988539794 10.9025055,0.988539794 C9.7663542,0.988539794 8.63020288,0.988539794 7.49405156,0.988539794 C7.09409113,0.988539794 6.69632829,0.988539794 6.29856545,0.988539794 C6.20406931,0.988539794 6.10957316,0.988539794 6.01507702,0.988539794 C6.00189151,0.988539794 5.99090358,0.988539794 5.97771807,0.988539794 C5.94695189,0.988539794 5.9161857,0.988539794 5.88541951,0.991007475 C5.86564125,0.991007475 5.84586299,0.993475157 5.82608473,0.995942839 C5.84586299,0.993475157 5.86344367,0.991007475 5.88322193,0.988539794 C5.87662918,0.976201385 5.75136684,1.01815197 5.73818134,1.02308734 C5.69642723,1.03789343 5.65467312,1.05763488 5.612919,1.06997329 C5.55358422,1.08477938 5.70741515,1.01568429 5.62390693,1.06503793 C5.60852384,1.07490865 5.59094316,1.08477938 5.57336248,1.09465011 C5.52062044,1.12426229 5.47447116,1.16127751 5.4261243,1.19582506 C5.34701125,1.25258174 5.47666875,1.1366007 5.43491464,1.18595433 C5.41733396,1.2032281 5.3975557,1.22050187 5.37997502,1.23777565 C5.34481366,1.27232319 5.31184989,1.3118061 5.28108371,1.351289 C5.27449095,1.35869205 5.24152718,1.39817496 5.24372476,1.40064264 C5.28328129,1.34388596 5.28987404,1.33648291 5.26130544,1.3784335 C5.25691027,1.38830423 5.25031752,1.39570727 5.24592235,1.405578 C5.21735375,1.44999627 5.19318032,1.49688222 5.17120447,1.54376818 C5.16900688,1.55117122 5.12945036,1.62520167 5.13384553,1.63013704 C5.13604311,1.63260472 5.17120447,1.51168831 5.14483345,1.60299254 C5.12945036,1.65728154 5.11186968,1.70663517 5.10088176,1.76092417 C5.09648659,1.78806867 5.08989383,1.81521316 5.08549866,1.84235766 C5.07670832,1.88924362 5.09209142,1.93612957 5.08549866,1.82755157 C5.08989383,1.90898507 5.07670832,2.00028929 5.07670832,2.08419047 C5.07670832,2.19770383 5.07670832,2.30874951 5.07670832,2.41979518 C5.07670832,2.75576253 5.07670832,3.09172988 5.07670832,3.42769723 Z M14.1681187,4.40209 C14.1608305,4.40284997 14.1535028,4.40342496 14.1461406,4.40381127 C14.127639,4.4047731 14.1093511,4.40416038 14.091356,4.40209 C13.3271193,4.40209 12.5646904,4.40209 11.8022614,4.40209 C10.928378,4.40209 10.0522766,4.40209 9.17617517,4.40209 C8.30894567,4.40209 7.44171617,4.40209 6.57448668,4.40209 C5.78266844,4.40209 4.9908502,4.40209 4.19903196,4.40209 C3.68516101,4.40209 3.17129006,4.40209 2.65741911,4.40209 C2.65741911,4.9390444 2.65741911,5.47834512 2.65741911,6.01524434 C2.65741911,6.93685965 2.65741911,7.86093259 2.65741911,8.7825479 C2.65741911,9.89585918 2.65741911,11.0091705 2.65741911,12.1224818 C2.65741911,13.235793 2.65741911,14.3491043 2.65741911,15.4624156 C2.65741911,16.3987768 2.65741911,17.3326803 2.65741911,18.2690414 C2.65741911,18.8367565 2.65741911,19.4020138 2.65741911,19.9697289 C2.65741911,20.0582039 2.65741911,20.1442214 2.65741911,20.2302388 C2.65962603,20.2867645 2.65962603,20.3457479 2.66403989,20.4022737 C2.66403989,20.4268501 2.66624682,20.4489688 2.66845374,20.4710876 C2.67507453,20.5693932 2.66403989,20.4415959 2.66403989,20.4415959 C2.65300525,20.4538841 2.68390224,20.5693932 2.68831609,20.5890544 C2.70597151,20.6849024 2.73024771,20.7807503 2.76114469,20.8741407 C2.76555855,20.8864289 2.77880011,20.9478699 2.78762782,20.9503276 C2.78542089,20.9503276 2.73907542,20.8372761 2.77659319,20.9232935 C2.79204168,20.9601581 2.8096971,20.9994804 2.82735252,21.0388026 C2.86707721,21.1248201 2.91121576,21.2083798 2.96197509,21.2870244 C2.95976816,21.2845667 2.99066514,21.3386348 2.995079,21.3386348 C2.98625129,21.3361772 2.93769888,21.2575327 2.9796305,21.3140584 C3.00611363,21.350923 3.03480369,21.3877876 3.06349374,21.4221946 C3.12308078,21.4934662 3.18487475,21.5598225 3.25108257,21.6212635 C3.26211721,21.6335517 3.29080727,21.6704163 3.30625576,21.672874 C3.30404883,21.672874 3.21797866,21.6016024 3.28639341,21.6532128 C3.31729039,21.6753316 3.34818738,21.7023657 3.38129129,21.7244844 C3.45632682,21.7760949 3.53136235,21.8227901 3.61081174,21.8645699 C3.61081174,21.8645699 3.65715721,21.8940616 3.66377799,21.891604 C3.64612257,21.8965193 3.57991475,21.857197 3.63950179,21.8793158 C3.68143341,21.8965193 3.72336503,21.9137228 3.76529665,21.9284686 C3.85136682,21.9579603 3.93743699,21.9800791 4.02571408,21.9972825 C4.10295654,22.0120284 4.03454179,22.0267742 4.01247252,21.9972825 C4.01467945,22.0021978 4.07205956,22.0046555 4.07205956,22.0046555 C4.11178425,22.0071131 4.15150894,22.0095708 4.19344056,22.0120284 C4.23537218,22.0120284 4.27951073,22.0120284 4.32144235,22.0120284 C4.50020347,22.0120284 4.68117152,22.0120284 4.85993263,22.0120284 C5.6147018,22.0120284 6.36726404,22.0120284 7.1220332,22.0120284 C8.12618516,22.0120284 9.13254405,22.0120284 10.136696,22.0120284 C11.0591916,22.0120284 11.9794804,22.0120284 12.901976,22.0120284 C13.418397,22.0120284 13.9326111,22.0120284 14.4468252,22.0120284 C14.4733083,22.0120284 14.4975845,22.0120284 14.5240676,22.0120284 C14.5704131,22.0120284 14.6167586,22.0095708 14.6631041,22.0071131 C14.6851733,22.0071131 14.7050357,22.0046555 14.724898,22.0021978 C14.7425535,22.0021978 14.8109682,21.9923673 14.7425535,22.0021978 C14.665311,22.0120284 14.7646227,21.9972825 14.7734504,21.9948249 C14.7933128,21.9923673 14.8131751,21.987452 14.8330375,21.9825367 C14.8705552,21.9727061 14.9102799,21.9628756 14.9477977,21.9505874 C14.9963501,21.9358415 15.0426956,21.918638 15.089041,21.9014346 C15.1066965,21.8940616 15.1265588,21.8866887 15.1442142,21.8793158 C15.2236636,21.8473665 15.119938,21.891604 15.119938,21.891604 C15.1375935,21.8989769 15.2104221,21.8473665 15.2258705,21.8375359 C15.2655952,21.8154171 15.303113,21.7932984 15.3406308,21.768722 C15.3825624,21.7416879 15.4222871,21.7121962 15.4620118,21.6827045 C15.4774603,21.6704163 15.4929088,21.6581281 15.5083573,21.6458399 C15.5591166,21.6089753 15.4443564,21.7072809 15.4884949,21.6630434 C15.5480819,21.6016024 15.6120828,21.5450766 15.669463,21.481178 C15.7025669,21.4443134 15.7356708,21.4049911 15.7665678,21.3632112 C15.7798093,21.3460077 15.790844,21.3312619 15.8040855,21.3140584 C15.8592587,21.2427868 15.788637,21.3386348 15.788637,21.3386348 C15.8173271,21.3410925 15.9078111,21.1395659 15.9232596,21.1100742 C15.9475358,21.063379 15.971812,21.0166839 15.9916743,20.967531 C16.0005021,20.9478699 16.0071228,20.9282088 16.0159505,20.9085477 C16.0424337,20.8495643 15.9894674,20.9994804 16.0049159,20.9355817 C16.0269852,20.8471066 16.062296,20.7610892 16.0821584,20.6701565 C16.093193,20.6160884 16.1042276,20.5620203 16.1130554,20.5079522 C16.1152623,20.4858334 16.1174692,20.461257 16.1218831,20.4415959 C16.0953999,20.5448168 16.1152623,20.5079522 16.1174692,20.4710876 C16.12409,20.3924431 16.1285038,20.3137986 16.1285038,20.2326964 C16.1307108,19.9304066 16.1285038,19.6281168 16.1285038,19.325827 C16.1285038,18.5615007 16.1285038,17.7971744 16.1285038,17.0328481 C16.1285038,15.9858931 16.1285038,14.9413958 16.1285038,13.8944408 C16.1285038,12.7565531 16.1285038,11.6162078 16.1285038,10.4783201 C16.1285038,9.43382271 16.1285038,8.38932537 16.1285038,7.34482802 C16.1285038,6.58295937 16.1285038,5.81863308 16.1285038,5.05430678 C16.1285038,4.83757819 16.1285038,4.61952235 16.1285038,4.40209 C15.5022807,4.40209 14.8777041,4.40209 14.2531274,4.40209 C14.2247885,4.40209 14.1964523,4.40209 14.1681187,4.40209 Z M5.08625096,7.10119171 C5.08625096,6.82187608 5.28508817,6.61671505 5.52325581,6.60682777 C5.75923844,6.59446867 5.96026067,6.84165064 5.96026067,7.10119171 C5.96026067,7.10860717 5.96026067,7.11602263 5.96026067,7.12343809 C5.97118579,7.61780203 5.96026067,8.1146378 5.96026067,8.61147356 C5.96026067,9.62739146 5.96026067,10.6433094 5.96026067,11.6592273 C5.96026067,12.8333416 5.96026067,14.007456 5.96026067,15.1815704 C5.96026067,16.1579391 5.96026067,17.1318361 5.96026067,18.1057331 C5.96026067,18.5135833 5.96026067,18.9189618 5.96026067,19.3243402 C5.96026067,19.601184 5.75923844,19.806345 5.52325581,19.8187041 C5.28727319,19.8310632 5.08625096,19.5838813 5.08625096,19.3243402 C5.08625096,19.3169247 5.08625096,19.3095093 5.08625096,19.3020938 C5.07532584,18.8077299 5.08625096,18.3108941 5.08625096,17.8140584 C5.08625096,16.7981405 5.08625096,15.7822226 5.08625096,14.7663046 C5.08625096,13.5921903 5.08625096,12.4180759 5.08625096,11.2439616 C5.08625096,10.2675928 5.08625096,9.2936958 5.08625096,8.31979883 C5.08625096,7.91194858 5.08625096,7.50657015 5.08625096,7.10119171 Z M9.93700486,19.3243402 C9.93700486,19.601184 9.73598262,19.806345 9.5,19.8187041 C9.26401738,19.8310632 9.06299514,19.5838813 9.06299514,19.3243402 C9.06299514,19.3169247 9.06299514,19.3095093 9.06299514,19.3020938 C9.05207002,18.8077299 9.06299514,18.3108941 9.06299514,17.8140584 C9.06299514,16.7981405 9.06299514,15.7822226 9.06299514,14.7663046 C9.06299514,13.5921903 9.06299514,12.4180759 9.06299514,11.2439616 C9.06299514,10.2675928 9.06299514,9.2936958 9.06299514,8.31979883 C9.06299514,7.91194858 9.06299514,7.50657015 9.06299514,7.10119171 C9.06299514,6.8243479 9.26401738,6.61918687 9.5,6.60682777 C9.73598262,6.59446867 9.93700486,6.84165064 9.93700486,7.10119171 C9.93700486,7.10860717 9.93700486,7.11602263 9.93700486,7.12343809 C9.94792998,7.61780203 9.93700486,8.1146378 9.93700486,8.61147356 C9.93700486,9.62739146 9.93700486,10.6433094 9.93700486,11.6592273 C9.93700486,12.8333416 9.93700486,14.007456 9.93700486,15.1815704 C9.93700486,16.1579391 9.93700486,17.1318361 9.93700486,18.1057331 C9.93700486,18.5135833 9.93700486,18.9189618 9.93700486,19.3243402 Z M13.913749,19.3243402 C13.913749,19.601184 13.7149118,19.806345 13.4767442,19.8187041 C13.2407616,19.8310632 13.0397393,19.5838813 13.0397393,19.3243402 C13.0397393,19.3169247 13.0397393,19.3095093 13.0397393,19.3020938 C13.0288142,18.8077299 13.0397393,18.3108941 13.0397393,17.8140584 C13.0397393,16.7981405 13.0397393,15.7822226 13.0397393,14.7663046 C13.0397393,13.5921903 13.0397393,12.4180759 13.0397393,11.2439616 C13.0397393,10.2675928 13.0397393,9.2936958 13.0397393,8.31979883 C13.0397393,7.91194858 13.0397393,7.50657015 13.0397393,7.10119171 C13.0397393,6.8243479 13.2407616,6.61918687 13.4767442,6.60682777 C13.7127268,6.59446867 13.913749,6.84165064 13.913749,7.10119171 C13.913749,7.10860717 13.913749,7.11602263 13.913749,7.12343809 C13.9246742,7.61780203 13.913749,8.1146378 13.913749,8.61147356 C13.913749,9.62739146 13.913749,10.6433094 13.913749,11.6592273 C13.913749,12.8333416 13.913749,14.007456 13.913749,15.1815704 C13.913749,16.1579391 13.913749,17.1318361 13.913749,18.1057331 C13.913749,18.5135833 13.913749,18.9189618 13.913749,19.3243402 Z" id="Combined-Shape"></path>
        </g>
    </g>
</svg>