<?xml version="1.0" encoding="UTF-8"?>
<svg width="15px" height="21px" viewBox="0 0 15 21" version="1.1" xmlns="http://www.w3.org/2000/svg" xmlns:xlink="http://www.w3.org/1999/xlink">
    <!-- Generator: Sketch 53.2 (72643) - https://sketchapp.com -->
    <title>outline-location_on-24px (2)</title>
    <desc>Created with Sketch.</desc>
    <g id="Symbols" stroke="none" stroke-width="1" fill="none" fill-rule="evenodd">
        <g id="info/icon/location/empty" transform="translate(-4.000000, -2.000000)">
            <g id="outline-location_on-24px-(2)">
                <polygon id="Shape" points="0 0 24 0 24 24 0 24"></polygon>
                <g id="Group" transform="translate(4.000000, 2.000000)" fill="#FFFFFF" fill-rule="nonzero">
                    <path d="M7.5,0.5 C11.3697138,0.5 14.5,3.6302862 14.5,7.5 C14.5,8.69594902 14.1436737,10.0525343 13.4861546,11.5448678 C12.9108214,12.8506686 12.1188005,14.2290539 11.1644822,15.6434899 C10.4446609,16.710368 9.67429046,17.7366115 8.90385405,18.6858992 C8.63406941,19.0183124 8.38337678,19.3175595 8.15810122,19.5790401 C8.02217894,19.736807 7.92438515,19.8475235 7.87105132,19.9065717 L7.5,20.3173785 L7.12894868,19.9065717 C7.07561485,19.8475235 6.97782106,19.736807 6.84189878,19.5790401 C6.61662322,19.3175595 6.36593059,19.0183124 6.09614595,18.6858992 C5.32570954,17.7366115 4.55533913,16.710368 3.83551778,15.6434899 C2.88119948,14.2290539 2.08917858,12.8506686 1.51384544,11.5448678 C0.856326334,10.0525343 0.5,8.69594902 0.5,7.5 C0.5,3.6302862 3.6302862,0.5 7.5,0.5 Z M7.576,9.28 C8.98666667,9.28 10.152,8.08571429 10.152,6.64 C10.152,5.19428571 8.98666667,4 7.576,4 C6.16533333,4 5,5.19428571 5,6.64 C5,8.08571429 6.16533333,9.28 7.576,9.28 Z" id="Combined-Shape"></path>
                </g>
            </g>
        </g>
    </g>
</svg>