<?xml version="1.0" encoding="UTF-8"?>
<svg width="17px" height="17px" viewBox="0 0 17 17" version="1.1" xmlns="http://www.w3.org/2000/svg" xmlns:xlink="http://www.w3.org/1999/xlink">
    <!-- Generator: Sketch 54.1 (76490) - https://sketchapp.com -->
    <title>pause</title>
    <desc>Created with Sketch.</desc>
    <g id="pause" stroke="none" stroke-width="1" fill="none" fill-rule="evenodd">
        <g id="Group-2" transform="translate(6.000000, 6.000000)" fill="#00B4A6" fill-rule="nonzero">
            <g id="Group">
                <path d="M1,0 L1,0 C1.27614237,-5.07265313e-17 1.5,0.223857625 1.5,0.5 L1.5,5.5 C1.5,5.77614237 1.27614237,6 1,6 L1,6 C0.723857625,6 0.5,5.77614237 0.5,5.5 L0.5,0.5 C0.5,0.223857625 0.723857625,5.07265313e-17 1,0 Z" id="Path-5-Copy"></path>
                <path d="M4,0 L4,0 C4.27614237,-5.07265313e-17 4.5,0.223857625 4.5,0.5 L4.5,5.5 C4.5,5.77614237 4.27614237,6 4,6 L4,6 C3.72385763,6 3.5,5.77614237 3.5,5.5 L3.5,0.5 C3.5,0.223857625 3.72385763,5.07265313e-17 4,0 Z" id="Path-5-Copy-2"></path>
            </g>
        </g>
    </g>
</svg>