<?xml version="1.0" encoding="UTF-8"?>
<svg width="23px" height="22px" viewBox="0 0 23 22" version="1.1" xmlns="http://www.w3.org/2000/svg" xmlns:xlink="http://www.w3.org/1999/xlink">
    <!-- Generator: Sketch 53.2 (72643) - https://sketchapp.com -->
    <title>Group</title>
    <desc>Created with Sketch.</desc>
    <defs>
        <path d="M20.2706667,2.64 C21.4973333,2.64 22.5093333,3.64571429 22.5706667,4.90285714 L22.5706667,19.2028571 C22.5706667,20.46 21.5586667,21.4971429 20.332,21.4971429 L2.23866667,21.4971429 C1.012,21.4971429 0,20.46 0,19.2028571 L0,4.93428571 C0,3.67714286 1.012,2.64 2.23866667,2.64 L7.75866667,2.64 C8.004,2.64 8.21866667,2.54571429 8.40266667,2.35714286 L10.304,0.408571429 C10.5493333,0.157142857 10.9173333,0 11.2546667,0 C11.592,0 11.96,0.157142857 12.2053333,0.408571429 L14.1066667,2.35714286 C14.26,2.54571429 14.5053333,2.64 14.7506667,2.64 L20.2706667,2.64 Z M14.2066667,13 L8.62533333,13 C7.736,13 7,13.7542857 7,14.6971429 L7,16.0171429 L15.7706667,16.0171429 L15.7706667,14.6971429 C15.832,13.7542857 15.096,13 14.2066667,13 Z M11.576,12.28 C12.9866667,12.28 14.152,11.0857143 14.152,9.64 C14.152,8.19428571 12.9866667,7 11.576,7 C10.1653333,7 9,8.19428571 9,9.64 C9,11.0857143 10.1653333,12.28 11.576,12.28 Z" id="path-1"></path>
    </defs>
    <g id="Symbols" stroke="none" stroke-width="1" fill="none" fill-rule="evenodd">
        <g id="info/icon/tag/empty" transform="translate(0.000000, -1.000000)">
            <g id="Group" transform="translate(0.000000, 1.000000)">
                <mask id="mask-2" fill="white">
                    <use xlink:href="#path-1"></use>
                </mask>
                <use id="Combined-Shape" fill="#FFFFFF" fill-rule="nonzero" xlink:href="#path-1"></use>
            </g>
        </g>
    </g>
</svg>