<?xml version="1.0" encoding="UTF-8"?>
<svg width="23px" height="22px" viewBox="0 0 23 22" version="1.1" xmlns="http://www.w3.org/2000/svg" xmlns:xlink="http://www.w3.org/1999/xlink">
    <!-- Generator: Sketch 53.2 (72643) - https://sketchapp.com -->
    <title>Group</title>
    <desc>Created with Sketch.</desc>
    <defs>
        <path d="M20.3933333,2.92285714 C21.62,2.92285714 22.632,3.92857143 22.6933333,5.18571429 L22.6933333,19.4857143 C22.6933333,20.7428571 21.6813333,21.78 20.4546667,21.78 L2.36133333,21.78 C1.13466667,21.78 0.122666667,20.7428571 0.122666667,19.4857143 L0.122666667,5.21714286 C0.122666667,3.96 1.13466667,2.92285714 2.36133333,2.92285714 L7.88133333,2.92285714 C8.12666667,2.92285714 8.34133333,2.82857143 8.52533333,2.64 L10.4266667,0.691428571 C10.672,0.44 11.04,0.282857143 11.3773333,0.282857143 C11.7146667,0.282857143 12.0826667,0.44 12.328,0.691428571 L14.2293333,2.64 C14.3826667,2.82857143 14.628,2.92285714 14.8733333,2.92285714 L20.3933333,2.92285714 Z M14.1373333,13.6714286 L8.556,13.6714286 C7.66666667,13.6714286 6.93066667,14.4257143 6.93066667,15.3685714 L6.93066667,16.6885714 L15.7013333,16.6885714 L15.7013333,15.3685714 C15.7626667,14.4257143 15.0266667,13.6714286 14.1373333,13.6714286 Z M11.3466667,12.5714286 C12.7573333,12.5714286 13.9226667,11.3771429 13.9226667,9.93142857 C13.9226667,8.48571429 12.7573333,7.29142857 11.3466667,7.29142857 C9.936,7.29142857 8.77066667,8.48571429 8.77066667,9.93142857 C8.77066667,11.3771429 9.936,12.5714286 11.3466667,12.5714286 Z" id="path-1"></path>
    </defs>
    <g id="Symbols" stroke="none" stroke-width="1" fill="none" fill-rule="evenodd">
        <g id="info/icon/tag/fill">
            <g id="Group">
                <mask id="mask-2" fill="white">
                    <use xlink:href="#path-1"></use>
                </mask>
                <use id="Combined-Shape" fill="#007AFF" fill-rule="nonzero" xlink:href="#path-1"></use>
            </g>
        </g>
    </g>
</svg>