<svg width="48" height="48" viewBox="0 0 48 48" fill="none" xmlns="http://www.w3.org/2000/svg">
<rect width="48" height="48" rx="8" fill="#AAE6E1"/>
<path fill-rule="evenodd" clip-rule="evenodd" d="M27.1543 17.6882C27.5433 17.3061 28.1667 17.3061 28.5557 17.6882L33.9514 22.9874C34.3505 23.3793 34.3505 24.0223 33.9514 24.4143L28.5557 29.7135C28.1667 30.0955 27.5433 30.0955 27.1543 29.7135L26.841 29.4058C26.442 29.0139 26.442 28.3708 26.841 27.9789L29.9617 24.914H15C14.4477 24.914 14 24.4663 14 23.914V23.4878C14 22.9355 14.4477 22.4878 15 22.4878H29.9619L26.841 19.4227C26.442 19.0308 26.442 18.3878 26.841 17.9958L27.1543 17.6882Z" fill="black"/>
</svg>
