<svg width="24" height="48" viewBox="0 0 24 48" fill="none" xmlns="http://www.w3.org/2000/svg">
<path fill-rule="evenodd" clip-rule="evenodd" d="M15.1543 17.6882C15.5433 17.3061 16.1667 17.3061 16.5557 17.6882L21.9514 22.9874C22.3505 23.3793 22.3505 24.0223 21.9514 24.4143L16.5557 29.7135C16.1667 30.0955 15.5433 30.0955 15.1543 29.7135L14.841 29.4058C14.442 29.0139 14.442 28.3708 14.841 27.9789L17.9617 24.914H3C2.44772 24.914 2 24.4663 2 23.914V23.4878C2 22.9355 2.44772 22.4878 3 22.4878H17.9619L14.841 19.4227C14.442 19.0308 14.442 18.3878 14.841 17.9958L15.1543 17.6882Z" fill="#00B4A6"/>
</svg>
