<svg width="18" height="17" viewBox="0 0 18 17" fill="none" xmlns="http://www.w3.org/2000/svg">
<g clip-path="url(#clip0_446_5872)">
<path d="M17.3319 4.30887C17.3258 4.23033 17.2997 4.15421 17.2556 4.08673C17.2115 4.01925 17.1507 3.96232 17.0781 3.92057L12.2462 1.14688C12.0496 1.03441 11.7983 1.04838 11.6183 1.18255L8.66639 3.37922L5.71502 1.18255C5.53555 1.04914 5.28235 1.03395 5.08717 1.14691L0.255214 3.9206C0.182642 3.96234 0.121825 4.01927 0.0777245 4.08675C0.0336243 4.15422 0.00749014 4.23033 0.00145426 4.30887C-0.0112871 4.46821 0.0602813 4.62307 0.193117 4.72577L2.99242 6.8893L0.594334 8.62213C0.457161 8.72063 0.380442 8.87426 0.387219 9.03385C0.393996 9.19344 0.483474 9.34032 0.628237 9.4291L2.8474 10.7899C2.73842 10.8809 2.66875 11.0113 2.66875 11.1577V13.1578C2.66875 13.3312 2.76662 13.492 2.9271 13.583L8.3823 16.4263C8.46905 16.4754 8.56773 16.4999 8.66613 16.4999C8.76454 16.4999 8.86322 16.4749 8.95051 16.4258L14.3423 13.5825C14.4211 13.5379 14.4861 13.4754 14.5312 13.4011C14.5764 13.3267 14.6001 13.243 14.6001 13.1579V10.8118C14.6001 10.7796 14.596 10.7482 14.5898 10.7178L16.6916 9.42908C16.7628 9.38546 16.8217 9.32695 16.8636 9.25834C16.9055 9.18972 16.9291 9.11296 16.9326 9.03433C16.9393 8.87449 16.8632 8.72138 16.7265 8.62263L14.339 6.8903L17.1399 4.72581C17.2731 4.62307 17.3446 4.46821 17.3319 4.30888L17.3319 4.30887ZM12.4734 6.89451L8.66647 9.08868L4.85952 6.89451L8.66647 4.61556L12.4734 6.89451ZM1.46246 4.40386L5.33339 2.18151L7.74557 3.9767L3.89361 6.28283L1.46246 4.40386ZM3.88738 7.51121L7.71604 9.71809L5.54621 11.246L1.85258 8.98122L3.88738 7.51121ZM3.75348 11.3452L5.26726 12.2736C5.45946 12.3915 5.71321 12.3836 5.89726 12.2546L8.08986 10.7111V15.1186L3.75346 12.8793V11.3452H3.75348ZM13.516 12.8793L9.17423 15.1498V10.6647L11.4219 12.2539C11.5186 12.3225 11.6357 12.3571 11.7523 12.3571C11.8594 12.3573 11.964 12.3281 12.053 12.2733L13.5158 11.3761V12.8793H13.516V12.8793ZM15.4687 8.98022L11.7746 11.2452L9.61531 9.71883L13.4445 7.51144L15.4687 8.98022ZM13.4391 6.2828L9.5871 3.97666L11.9998 2.18148L15.8708 4.40383L13.4391 6.2828Z" fill="#212021"/>
</g>
<defs>
<clipPath id="clip0_446_5872">
<rect width="17.3333" height="16" fill="white" transform="translate(0 0.5)"/>
</clipPath>
</defs>
</svg>
