<svg width="177" height="48" viewBox="0 0 177 48" fill="none" xmlns="http://www.w3.org/2000/svg">
<g clip-path="url(#clip0_446_6120)">
<path d="M43.998 17.7133C43.9896 17.5955 43.9534 17.4813 43.8924 17.3801C43.8313 17.2789 43.7471 17.1935 43.6466 17.1309L36.9562 12.9703C36.6841 12.8016 36.3362 12.8226 36.0869 13.0238L31.9996 16.3188L27.9131 13.0238C27.6646 12.8237 27.314 12.8009 27.0438 12.9704L20.3534 17.1309C20.2529 17.1935 20.1687 17.2789 20.1076 17.3801C20.0466 17.4813 20.0104 17.5955 20.002 17.7133C19.9844 17.9523 20.0835 18.1846 20.2674 18.3387L24.1433 21.584L20.8229 24.1832C20.633 24.3309 20.5268 24.5614 20.5361 24.8008C20.5455 25.0402 20.6694 25.2605 20.8699 25.3936L23.9426 27.4348C23.7917 27.5714 23.6952 27.767 23.6952 27.9865V30.9868C23.6952 31.2467 23.8307 31.488 24.0529 31.6245L31.6063 35.8894C31.7264 35.9631 31.863 35.9998 31.9993 35.9998C32.1355 35.9998 32.2721 35.9624 32.393 35.8887L39.8585 31.6238C39.9676 31.5568 40.0577 31.4631 40.1202 31.3516C40.1827 31.2401 40.2155 31.1145 40.2155 30.9868V27.4677C40.2155 27.4195 40.2099 27.3724 40.2012 27.3267L43.1114 25.3936C43.21 25.3282 43.2916 25.2404 43.3496 25.1375C43.4076 25.0346 43.4403 24.9194 43.4451 24.8015C43.4545 24.5617 43.349 24.3321 43.1598 24.1839L39.854 21.5855L43.7322 18.3387C43.9165 18.1846 44.0156 17.9523 43.998 17.7133L43.998 17.7133ZM37.2709 21.5918L31.9997 24.883L26.7286 21.5918L31.9997 18.1733L37.2709 21.5918ZM22.0249 17.8558L27.3847 14.5223L30.7246 17.215L25.3912 20.6742L22.0249 17.8558ZM25.3825 22.5168L30.6837 25.8271L27.6794 28.1189L22.5651 24.7218L25.3825 22.5168ZM25.1971 28.2678L27.2931 29.6604C27.5593 29.8373 27.9106 29.8253 28.1654 29.632L31.2013 27.3166V33.9279L25.1971 30.569V28.2678H25.1971ZM38.7145 30.5689L32.7028 33.9747V27.247L35.8149 29.6308C35.9489 29.7337 36.111 29.7857 36.2724 29.7857C36.4206 29.7859 36.5656 29.7422 36.6887 29.66L38.7142 28.3142V30.569H38.7145V30.5689ZM41.4182 24.7203L36.3032 28.1178L33.3135 25.8282L38.6155 22.5172L41.4182 24.7203ZM38.6079 20.6742L33.2744 17.215L36.6151 14.5222L41.9749 17.8557L38.6079 20.6742Z" fill="white"/>
</g>
<path d="M53.504 18.8H58.4C59.5947 18.8 60.656 19.0347 61.584 19.504C62.512 19.9627 63.232 20.6187 63.744 21.472C64.256 22.3147 64.512 23.2907 64.512 24.4C64.512 25.5093 64.256 26.4907 63.744 27.344C63.232 28.1867 62.512 28.8427 61.584 29.312C60.656 29.7707 59.5947 30 58.4 30H53.504V18.8ZM58.304 28.24C59.1253 28.24 59.8453 28.0853 60.464 27.776C61.0933 27.456 61.5733 27.008 61.904 26.432C62.2453 25.8453 62.416 25.168 62.416 24.4C62.416 23.632 62.2453 22.96 61.904 22.384C61.5733 21.7973 61.0933 21.3493 60.464 21.04C59.8453 20.72 59.1253 20.56 58.304 20.56H55.584V28.24H58.304ZM68.5947 22.704C69.1708 21.808 70.1841 21.36 71.6348 21.36V23.264C71.4641 23.232 71.3094 23.216 71.1708 23.216C70.3921 23.216 69.7841 23.4453 69.3468 23.904C68.9094 24.352 68.6908 25.0027 68.6908 25.856V30H66.6907V21.456H68.5947V22.704ZM77.2533 30.112C76.3892 30.112 75.6106 29.9253 74.9172 29.552C74.2239 29.1787 73.6799 28.6613 73.2852 28C72.9012 27.328 72.7092 26.5707 72.7092 25.728C72.7092 24.8853 72.9012 24.1333 73.2852 23.472C73.6799 22.8107 74.2239 22.2933 74.9172 21.92C75.6106 21.5467 76.3892 21.36 77.2533 21.36C78.1279 21.36 78.9119 21.5467 79.6052 21.92C80.2986 22.2933 80.8373 22.8107 81.2213 23.472C81.6159 24.1333 81.8133 24.8853 81.8133 25.728C81.8133 26.5707 81.6159 27.328 81.2213 28C80.8373 28.6613 80.2986 29.1787 79.6052 29.552C78.9119 29.9253 78.1279 30.112 77.2533 30.112ZM77.2533 28.4C77.9893 28.4 78.5973 28.1547 79.0773 27.664C79.5573 27.1733 79.7973 26.528 79.7973 25.728C79.7973 24.928 79.5573 24.2827 79.0773 23.792C78.5973 23.3013 77.9893 23.056 77.2533 23.056C76.5173 23.056 75.9092 23.3013 75.4292 23.792C74.9599 24.2827 74.7252 24.928 74.7252 25.728C74.7252 26.528 74.9599 27.1733 75.4292 27.664C75.9092 28.1547 76.5173 28.4 77.2533 28.4ZM88.6217 21.36C89.4537 21.36 90.1951 21.5413 90.8457 21.904C91.5071 22.2667 92.0244 22.7787 92.3977 23.44C92.7711 24.1013 92.9578 24.864 92.9578 25.728C92.9578 26.592 92.7711 27.36 92.3977 28.032C92.0244 28.6933 91.5071 29.2053 90.8457 29.568C90.1951 29.9307 89.4537 30.112 88.6217 30.112C87.4697 30.112 86.5577 29.728 85.8857 28.96V33.104H83.8857V21.456H85.7897V22.576C86.1204 22.1707 86.5257 21.8667 87.0057 21.664C87.4964 21.4613 88.0351 21.36 88.6217 21.36ZM88.3977 28.4C89.1337 28.4 89.7364 28.1547 90.2057 27.664C90.6857 27.1733 90.9257 26.528 90.9257 25.728C90.9257 24.928 90.6857 24.2827 90.2057 23.792C89.7364 23.3013 89.1337 23.056 88.3977 23.056C87.9177 23.056 87.4857 23.168 87.1017 23.392C86.7177 23.6053 86.4137 23.9147 86.1897 24.32C85.9657 24.7253 85.8537 25.1947 85.8537 25.728C85.8537 26.2613 85.9657 26.7307 86.1897 27.136C86.4137 27.5413 86.7177 27.856 87.1017 28.08C87.4857 28.2933 87.9177 28.4 88.3977 28.4ZM99.7505 21.36C100.582 21.36 101.324 21.5413 101.974 21.904C102.636 22.2667 103.153 22.7787 103.526 23.44C103.9 24.1013 104.087 24.864 104.087 25.728C104.087 26.592 103.9 27.36 103.526 28.032C103.153 28.6933 102.636 29.2053 101.974 29.568C101.324 29.9307 100.582 30.112 99.7505 30.112C99.1638 30.112 98.6252 30.0107 98.1345 29.808C97.6545 29.6053 97.2492 29.3013 96.9185 28.896V30H95.0145V18.128H97.0145V22.496C97.3558 22.1227 97.7558 21.84 98.2145 21.648C98.6838 21.456 99.1958 21.36 99.7505 21.36ZM99.5265 28.4C100.262 28.4 100.865 28.1547 101.334 27.664C101.814 27.1733 102.054 26.528 102.054 25.728C102.054 24.928 101.814 24.2827 101.334 23.792C100.865 23.3013 100.262 23.056 99.5265 23.056C99.0465 23.056 98.6145 23.168 98.2305 23.392C97.8465 23.6053 97.5425 23.9147 97.3185 24.32C97.0945 24.7253 96.9825 25.1947 96.9825 25.728C96.9825 26.2613 97.0945 26.7307 97.3185 27.136C97.5425 27.5413 97.8465 27.856 98.2305 28.08C98.6145 28.2933 99.0465 28.4 99.5265 28.4ZM109.983 30.112C109.119 30.112 108.341 29.9253 107.647 29.552C106.954 29.1787 106.41 28.6613 106.015 28C105.631 27.328 105.439 26.5707 105.439 25.728C105.439 24.8853 105.631 24.1333 106.015 23.472C106.41 22.8107 106.954 22.2933 107.647 21.92C108.341 21.5467 109.119 21.36 109.983 21.36C110.858 21.36 111.642 21.5467 112.335 21.92C113.029 22.2933 113.567 22.8107 113.951 23.472C114.346 24.1333 114.543 24.8853 114.543 25.728C114.543 26.5707 114.346 27.328 113.951 28C113.567 28.6613 113.029 29.1787 112.335 29.552C111.642 29.9253 110.858 30.112 109.983 30.112ZM109.983 28.4C110.719 28.4 111.327 28.1547 111.807 27.664C112.287 27.1733 112.527 26.528 112.527 25.728C112.527 24.928 112.287 24.2827 111.807 23.792C111.327 23.3013 110.719 23.056 109.983 23.056C109.247 23.056 108.639 23.3013 108.159 23.792C107.69 24.2827 107.455 24.928 107.455 25.728C107.455 26.528 107.69 27.1733 108.159 27.664C108.639 28.1547 109.247 28.4 109.983 28.4ZM121.774 30L119.582 27.04L117.374 30H115.166L118.494 25.664L115.31 21.456H117.534L119.63 24.256L121.726 21.456H123.886L120.686 25.632L124.03 30H121.774Z" fill="white"/>
<path d="M138.792 27.22C138.364 26.8242 138.364 26.1487 138.792 25.753L144.32 20.6298C144.704 20.2745 145.296 20.2745 145.68 20.6298L151.208 25.753C151.636 26.1487 151.636 26.8242 151.208 27.22L151.046 27.3702C150.663 27.7255 150.07 27.7255 149.687 27.3702L145 23.027L140.313 27.3702C139.93 27.7255 139.337 27.7255 138.954 27.3702L138.792 27.22Z" fill="white"/>
<defs>
<clipPath id="clip0_446_6120">
<rect width="24" height="24" fill="white" transform="translate(20 12)"/>
</clipPath>
</defs>
</svg>
