<svg width="18" height="17" viewBox="0 0 18 17" fill="none" xmlns="http://www.w3.org/2000/svg">
<path d="M3.57137 10.3241H14.0714M3.57137 10.3241C2.95253 10.3241 2.35904 10.0972 1.92145 9.69326C1.48387 9.28934 1.23804 8.7415 1.23804 8.17026M3.57137 10.3241C2.95253 10.3241 2.35904 10.551 1.92145 10.955C1.48387 11.3589 1.23804 11.9067 1.23804 12.478C1.23804 13.0492 1.48387 13.597 1.92145 14.001C2.35904 14.4049 2.95253 14.6318 3.57137 14.6318H14.0714C14.6902 14.6318 15.2837 14.4049 15.7213 14.001C16.1589 13.597 16.4047 13.0492 16.4047 12.478C16.4047 11.9067 16.1589 11.3589 15.7213 10.955C15.2837 10.551 14.6902 10.3241 14.0714 10.3241M1.23804 8.17026C1.23804 7.59903 1.48387 7.05119 1.92145 6.64726C2.35904 6.24334 2.95253 6.01641 3.57137 6.01641H14.0714C14.6902 6.01641 15.2837 6.24334 15.7213 6.64726C16.1589 7.05119 16.4047 7.59903 16.4047 8.17026M1.23804 8.17026C1.23804 7.47122 1.48366 6.79103 1.93804 6.2318L3.95015 3.75488C4.19466 3.45394 4.51172 3.20968 4.87621 3.04146C5.24071 2.87323 5.64263 2.78564 6.05015 2.78564H11.5926C12.4186 2.78564 13.1964 3.14462 13.6926 3.75488L15.7047 6.2318C16.1591 6.79103 16.4047 7.47122 16.4047 8.17026M16.4047 8.17026C16.4047 8.7415 16.1589 9.28934 15.7213 9.69326C15.2837 10.0972 14.6902 10.3241 14.0714 10.3241M14.0714 12.478H14.0776V12.4837H14.0714V12.478ZM14.0714 8.17026H14.0776V8.17601H14.0714V8.17026ZM11.738 12.478H11.7443V12.4837H11.738V12.478ZM11.738 8.17026H11.7443V8.17601H11.738V8.17026Z" stroke="white" stroke-linecap="round" stroke-linejoin="round"/>
</svg>
