<svg width="21" height="20" viewBox="0 0 21 20" fill="none" xmlns="http://www.w3.org/2000/svg">
<path d="M9.81842 2.82691L9.8193 2.82619C10.0113 2.66894 10.2518 2.58301 10.5 2.58301C10.7481 2.58301 10.9886 2.66894 11.1806 2.8262L11.1815 2.82691L16.67 7.30189C16.6702 7.30205 16.6704 7.30221 16.6706 7.30237C16.7998 7.40843 16.9039 7.54186 16.9752 7.69302C17.0467 7.84441 17.0836 8.00979 17.0833 8.17721V8.17814V16.2969C17.0833 16.923 16.5863 17.4165 15.9895 17.4165H13.8645C13.2678 17.4165 12.7708 16.923 12.7708 16.2969V12.3956C12.7708 11.8292 12.317 11.3561 11.7395 11.3561H9.26038C8.68358 11.3561 8.22913 11.829 8.22913 12.3956V16.2973C8.22913 16.9234 7.73208 17.4169 7.13538 17.4169H5.01062C4.41401 17.4166 3.91663 16.9228 3.91663 16.2969L3.91663 8.17814L3.91663 8.17721C3.91631 8.00979 3.95323 7.84441 4.02471 7.69302C4.09609 7.54182 4.20016 7.40836 4.3294 7.30228C4.32956 7.30215 4.32972 7.30202 4.32989 7.30189L9.81842 2.82691Z" fill="white" stroke="white"/>
</svg>
