<svg width="21" height="20" viewBox="0 0 21 20" fill="none" xmlns="http://www.w3.org/2000/svg">
<path d="M17.0208 8.17878C17.0211 8.02422 16.987 7.87153 16.921 7.73177L16.0168 8.15881C16.0195 8.16441 16.0208 8.17053 16.0208 8.17673V8.17814V16.2973C16.0208 16.3112 16.0158 16.3214 16.0088 16.3285C16.0019 16.3355 15.9956 16.3373 15.9895 16.3373H13.8645C13.8581 16.3373 13.8519 16.3354 13.8453 16.3286C13.8384 16.3216 13.8333 16.3114 13.8333 16.2973V12.3956C13.8333 11.2328 12.9031 10.2765 11.7395 10.2765H9.26038C8.09683 10.2765 7.16663 11.2328 7.16663 12.3956V16.2969C7.16663 16.3108 7.16162 16.3209 7.15461 16.3281C7.14773 16.3351 7.14145 16.3369 7.13538 16.3369H5.01038C5.00398 16.3369 4.99778 16.335 4.99108 16.3282C4.98422 16.3212 4.97913 16.311 4.97913 16.2969L4.97913 8.17814L4.97913 8.17707C4.97911 8.17065 4.98053 8.1643 4.98327 8.15849C4.98597 8.15277 4.98988 8.14772 4.99474 8.14367C4.99482 8.14361 4.9949 8.14354 4.99498 8.14348L10.4834 3.66901L9.85152 2.89394L4.36194 7.36936L4.36078 7.37031L3.97913 8.1786M17.0208 8.17878C17.0208 8.17904 17.0208 8.1793 17.0208 8.17956L16.5208 8.17814H17.0208V8.17878ZM17.0208 8.17878V16.2973C17.0208 16.8642 16.5666 17.3373 15.9895 17.3373H13.8645C13.2868 17.3373 12.8333 16.8639 12.8333 16.2973V12.3956C12.8333 11.7702 12.336 11.2765 11.7395 11.2765H9.26038C8.66392 11.2765 8.16663 11.7702 8.16663 12.3956V16.2969C8.16663 16.8637 7.71242 17.3369 7.13538 17.3369H5.01038C4.43266 17.3369 3.97913 16.8635 3.97913 16.2969V8.1786M3.97913 8.1786C3.97913 8.1788 3.97913 8.17901 3.97913 8.17921L4.47913 8.17814H3.97913V8.1786ZM9.81842 2.82691L9.8193 2.82619C10.0113 2.66894 10.2518 2.58301 10.5 2.58301C10.7481 2.58301 10.9886 2.66894 11.1806 2.8262L11.1815 2.82691L16.67 7.30189C16.6702 7.30201 16.6703 7.30213 16.6705 7.30225C16.7997 7.40833 16.9038 7.5418 16.9752 7.69302C17.0467 7.84441 17.0836 8.0098 17.0833 8.17721V8.17814V16.2969C17.0833 16.923 16.5863 17.4165 15.9895 17.4165H13.8645C13.2678 17.4165 12.7708 16.923 12.7708 16.2969V12.3956C12.7708 11.8292 12.317 11.3561 11.7395 11.3561H9.26038C8.68358 11.3561 8.22913 11.829 8.22913 12.3956V16.2973C8.22913 16.9234 7.73208 17.4169 7.13538 17.4169H5.01062C4.41401 17.4166 3.91663 16.9228 3.91663 16.2969L3.91663 8.17814L3.91663 8.17721C3.91631 8.00979 3.95323 7.84441 4.02471 7.69302C4.09609 7.54181 4.20017 7.40835 4.32942 7.30227C4.32958 7.30214 4.32973 7.30201 4.32989 7.30189L9.81842 2.82691Z" fill="white" stroke="white"/>
</svg>
