<svg width="30" height="32" viewBox="0 0 30 32" fill="none" xmlns="http://www.w3.org/2000/svg">
<g filter="url(#filter0_d_421_2146)">
<path d="M5.21436 23.3837H25.4235V23.5H5.21433L5.21436 23.3837ZM24.5863 21.7093V22.1047H6.05144V21.7093H24.5863ZM7.44678 17.7882L7.44664 17.7881L7.44655 17.8001L7.43028 19.8721H6.56167L6.44684 17.7823L6.33051 14.1496V11.2264L6.44674 8.1627L6.53249 6.63953H7.35271L7.44712 8.16413L7.56307 11.2066V14.1301L7.44678 17.7882ZM24.1912 17.7882L24.191 17.7882L24.1909 17.8002L24.1749 19.8721H23.3058L23.1906 17.7824L23.0747 14.1496V11.2264L23.1905 8.16272L23.2766 6.63953H24.0973L24.1915 8.16418L24.3073 11.2066V14.1301L24.1912 17.7882ZM12.47 17.7881L12.4699 17.7881L12.4698 17.8002L12.4537 19.8721H11.5845L11.4697 17.7824L11.3538 14.1497V11.2264L11.4696 8.16271L11.5557 6.63953H12.3759L12.4704 8.16415L12.5863 11.2066V14.1301L12.47 17.7881ZM18.8886 17.7881L18.8885 17.7881L18.8884 17.8002L18.8723 19.8721H18.0033L17.8883 17.7823L17.7724 14.1497V11.2264L17.8882 8.16271L17.9743 6.63953H18.7945L18.889 8.16411L19.0049 11.2067V14.1301L18.8886 17.7881ZM24.5863 4.12791V5.0814H6.05144V4.12791H24.5863ZM24.0998 2.56977H6.50566L15.1203 0.513483L24.0998 2.56977Z" stroke="#00B4A6" stroke-linejoin="round"/>
</g>
<defs>
<filter id="filter0_d_421_2146" x="-1" y="0" width="32" height="32" filterUnits="userSpaceOnUse" color-interpolation-filters="sRGB">
<feFlood flood-opacity="0" result="BackgroundImageFix"/>
<feColorMatrix in="SourceAlpha" type="matrix" values="0 0 0 0 0 0 0 0 0 0 0 0 0 0 0 0 0 0 127 0" result="hardAlpha"/>
<feOffset dy="4"/>
<feGaussianBlur stdDeviation="2"/>
<feComposite in2="hardAlpha" operator="out"/>
<feColorMatrix type="matrix" values="0 0 0 0 0 0 0 0 0 0 0 0 0 0 0 0 0 0 0.25 0"/>
<feBlend mode="normal" in2="BackgroundImageFix" result="effect1_dropShadow_421_2146"/>
<feBlend mode="normal" in="SourceGraphic" in2="effect1_dropShadow_421_2146" result="shape"/>
</filter>
</defs>
</svg>
