<svg width="21" height="20" viewBox="0 0 21 20" fill="none" xmlns="http://www.w3.org/2000/svg">
<path d="M10.6681 7.34414C10.1552 7.29348 9.63914 7.40261 9.19062 7.65657C8.74209 7.91054 8.38303 8.29693 8.1626 8.76285C7.94216 9.22876 7.87112 9.75143 7.9592 10.2593C8.04729 10.7671 8.29019 11.2353 8.65466 11.5998C9.01912 11.9643 9.48734 12.2072 9.99519 12.2953C10.503 12.3833 11.0257 12.3123 11.4916 12.0919C11.9575 11.8714 12.3439 11.5124 12.5979 11.0638C12.8519 10.6153 12.961 10.0993 12.9103 9.58633C12.8526 9.01132 12.5978 8.47396 12.1891 8.06532C11.7805 7.65668 11.2431 7.40189 10.6681 7.34414V7.34414ZM16.6877 9.83203C16.6861 10.1038 16.6661 10.3751 16.6279 10.6441L18.3939 12.0293C18.4708 12.093 18.5226 12.182 18.5402 12.2803C18.5577 12.3787 18.5398 12.48 18.4896 12.5664L16.8189 15.457C16.7682 15.5426 16.6889 15.6075 16.595 15.6403C16.5011 15.6731 16.3986 15.6717 16.3056 15.6363L14.5517 14.9301C14.455 14.8916 14.3502 14.8777 14.2468 14.8896C14.1434 14.9015 14.0446 14.9389 13.9592 14.9984C13.6915 15.1828 13.4102 15.3465 13.1177 15.4883C13.0258 15.533 12.9463 15.5996 12.8862 15.6823C12.8261 15.765 12.7873 15.8612 12.7732 15.9625L12.5103 17.8332C12.4931 17.932 12.442 18.0217 12.3659 18.0871C12.2898 18.1524 12.1934 18.1893 12.0931 18.1914H8.75173C8.65311 18.1897 8.55802 18.1545 8.48211 18.0915C8.40621 18.0285 8.35402 17.9415 8.33415 17.8449L8.07165 15.977C8.05691 15.8746 8.0171 15.7774 7.95577 15.6942C7.89444 15.6109 7.81348 15.5441 7.72009 15.4996C7.42798 15.3586 7.14766 15.1944 6.88181 15.0086C6.79669 14.9494 6.69817 14.9123 6.59513 14.9006C6.49209 14.8889 6.38777 14.9031 6.29157 14.9418L4.53806 15.6477C4.44513 15.683 4.3427 15.6845 4.2488 15.6518C4.15491 15.619 4.07557 15.5542 4.02477 15.4687L2.35407 12.5781C2.30384 12.4918 2.28589 12.3904 2.30342 12.292C2.32094 12.1937 2.37281 12.1047 2.44977 12.041L3.94235 10.8691C4.02412 10.8042 4.08839 10.7199 4.12932 10.6239C4.17025 10.5278 4.18654 10.4231 4.17673 10.3191C4.16266 10.1563 4.15407 9.99375 4.15407 9.83086C4.15407 9.66797 4.16227 9.50781 4.17673 9.34844C4.18547 9.24513 4.16838 9.14127 4.12699 9.04621C4.08559 8.95115 4.0212 8.86788 3.93962 8.80391L2.44782 7.63203C2.3721 7.568 2.32133 7.47937 2.30441 7.38167C2.28748 7.28397 2.30548 7.18342 2.35524 7.09766L4.02595 4.20703C4.07668 4.12148 4.15599 4.05659 4.24989 4.02378C4.34379 3.99098 4.44626 3.99238 4.53923 4.02773L6.29313 4.73398C6.38985 4.77249 6.49462 4.78641 6.59804 4.77448C6.70146 4.76255 6.8003 4.72515 6.88571 4.66562C7.15339 4.4813 7.43466 4.31755 7.72712 4.17578C7.81906 4.13109 7.89859 4.06445 7.95868 3.98175C8.01876 3.89904 8.05756 3.80282 8.07165 3.70156L8.33454 1.83086C8.35181 1.73206 8.40285 1.64233 8.47894 1.57699C8.55504 1.51166 8.65146 1.47478 8.75173 1.47266H12.0931C12.1918 1.47436 12.2868 1.50961 12.3627 1.57259C12.4387 1.63557 12.4908 1.72253 12.5107 1.81914L12.7732 3.68711C12.788 3.78948 12.8278 3.88662 12.8891 3.9699C12.9504 4.05317 13.0314 4.12001 13.1248 4.16445C13.4169 4.30545 13.6972 4.46965 13.9631 4.65547C14.0482 4.71469 14.1467 4.75181 14.2497 4.76347C14.3528 4.77513 14.4571 4.76097 14.5533 4.72227L16.3068 4.01641C16.3997 3.98102 16.5022 3.97956 16.5961 4.01229C16.69 4.04502 16.7693 4.10983 16.8201 4.19531L18.4908 7.08594C18.541 7.1723 18.559 7.27369 18.5414 7.37204C18.5239 7.4704 18.4721 7.55935 18.3951 7.62305L16.9025 8.79492C16.8204 8.85962 16.7557 8.94383 16.7145 9.03989C16.6732 9.13595 16.6566 9.24081 16.6662 9.34492C16.6791 9.50664 16.6877 9.66914 16.6877 9.83203Z" stroke="#AEAEAE" stroke-width="1.3913" stroke-linecap="round" stroke-linejoin="round"/>
</svg>
